<svg version="1.1" xmlns="http://www.w3.org/2000/svg" xmlns:xlink="http://www.w3.org/1999/xlink" preserveAspectRatio="xMidYMid meet" viewBox="495 310 150 70">
        <g data-item-type="shape" data-item="Shape" data-logo-item="" id="logo__item--shape_4" class="logo__item">
        <g class="logo__item__inner" transform="translate(547.9500007629395 323.45000076293945) scale(0.5201038445091806 0.5201038445091806) rotate(0 0 0)">

        <g>
        <rect x="4.5" y="12.5" fill="#dde4f2" width="77.1" height="77.1" data-part-id="logo__item--shape_4__0"></rect>
        </g>

        </g>
        </g><g data-item-type="text" data-item="Business" id="logo__item--business" class="logo__item">
        <g class="logo__item__inner" transform="translate(510.875 406.7381069477844) scale(1 1) rotate(0 0 0)">
        </g>
        </g><g data-item-type="shape" data-item="Shape" data-logo-item="" id="logo__item--shape_1" class="logo__item" data-item-clone="true">
        <g class="logo__item__inner" transform="translate(542.0999984741211 316.5999984741211) scale(0.6484373247489955 0.6484373247489955) rotate(0 0 0)">

        <g>
        <path fill="#30f898" d="M81.4,89.4H4.6V12.6h76.7V89.4z M12.6,81.4h60.8V20.6H12.6V81.4z" data-part-id="logo__item--shape_1__0"></path>
        </g>

        </g>
        </g><g data-item-type="shape" data-item="Shape" data-logo-item="" id="logo__item--shape_2" class="logo__item" data-item-clone="true">
        <g class="logo__item__inner" transform="translate(576.0500030517578 306.8499984741211) scale(0.523355483354515 0.523355483354515) rotate(0 0 0)">

        <g>
        <path fill="#52cd92" d="M4.5,81.3c0,0-3.2-23.7,29.6-30.2C66.9,44.5,97.7,37.1,92.6,21c0,0,13.6,21-13.1,33   C52.9,65.9,9.9,52.2,4.5,81.3z" data-part-id="logo__item--shape_2__0"></path>
        </g>

        </g>
        </g><g data-item-type="shape" data-item="Shape" data-logo-item="" id="logo__item--shape_3" class="logo__item">
        <g class="logo__item__inner" transform="translate(565.0500030517578 299.8499984741211) scale(0.7521448854834359 0.7521448854834359) rotate(0 0 0)">

        <g>
        <path fill="#1b82bf" d="M4.5,81.3c0,0-3.2-23.7,29.6-30.2C66.9,44.5,97.7,37.1,92.6,21c0,0,13.6,21-13.1,33   C52.9,65.9,9.9,52.2,4.5,81.3z" data-part-id="logo__item--shape_3__0"></path>
        </g>

        </g>
        </g>
</svg>